<svg width="160" height="40" viewBox="0 0 160 40" fill="none" xmlns="http://www.w3.org/2000/svg">
<path d="M34.6864 8.08831L19.9997 33.525L5.31305 8.08831H34.6864ZM35.8764 7.39998H4.12305L19.9997 34.9L35.8764 7.39998Z" fill="white"/>
<path d="M19.9997 21.15L35.8764 7.39998H4.12305L19.9997 21.15Z" fill="white" fill-opacity="0.5"/>
<path d="M19.9997 15.4216L35.8764 7.39998H4.12305L19.9997 15.4216Z" fill="white" fill-opacity="0.5"/>
<path d="M19.9997 10.8383L35.8764 7.39998H4.12305L19.9997 10.8383Z" fill="white"/>
<path d="M20.0003 30.3166L23.9703 23.4416H16.0303L20.0003 30.3166Z" fill="white"/>
<path d="M61.4953 14.8217C58.0003 14.8217 55.167 17.655 55.167 21.15C55.167 24.645 58.0003 27.4784 61.4953 27.4784C64.9903 27.4784 67.8237 24.645 67.8237 21.15C67.8237 17.655 64.9903 14.8217 61.4953 14.8217ZM61.4953 25.0834C59.512 25.0834 57.9037 23.3217 57.9037 21.15C57.9037 18.9784 59.512 17.2167 61.4953 17.2167C63.4787 17.2167 65.087 18.9784 65.087 21.15C65.087 23.3217 63.4787 25.0834 61.4953 25.0834Z" fill="white"/>
<path d="M83.0431 23.8867L80.3081 15.6783L80.1364 15.1633H77.7414L77.5714 15.6783L74.8331 23.8867L71.9264 15.1633H69.1914L73.2947 27.4783H73.6364H76.0314H76.3747L78.9397 19.7817L81.5047 27.4783H81.8464H84.2414H84.5831L88.6864 15.1633H85.9497L83.0431 23.8867Z" fill="white"/>
<path d="M96.23 14.8217C95.5266 14.8217 94.8483 14.9417 94.215 15.1534C91.7083 15.9984 89.9033 18.3584 89.9033 21.15C89.9033 23.3834 91.0633 25.3434 92.815 26.4717C93.8683 27.08 95.0833 27.44 96.3783 27.475C96.4433 27.475 96.5083 27.4784 96.5733 27.4784C98.6833 27.4784 100.59 26.6084 101.958 25.2067L100.21 23.9967C99.465 24.6534 98.5333 25.105 97.5067 25.2684C97.23 25.3134 96.945 25.34 96.6583 25.34C95.66 25.34 94.73 25.0634 93.9283 24.595C93.1566 24.0067 92.6017 23.1584 92.3917 22.1767H102.47C102.525 21.8417 102.558 21.4984 102.558 21.15C102.558 19.93 102.205 18.7934 101.607 17.825C100.492 16.0267 98.5016 14.8217 96.23 14.8217ZM92.475 20.1234C92.9867 18.44 94.55 17.2167 96.4017 17.2167C98.2533 17.2167 99.815 18.44 100.328 20.1234H92.475Z" fill="white"/>
<path d="M107.5 16.53V15.165H105.105V27.4783H107.5V20.1817C107.5 19.745 107.635 19.315 107.89 18.9617C109.722 16.425 113.314 17.9017 113.314 17.9017L114.132 16.0717C111.945 14.825 108.867 15.1667 107.499 16.5333L107.5 16.53Z" fill="white"/>
<path d="M132.315 16.53V15.165H129.92V27.4783H132.315V20.1817C132.315 19.745 132.45 19.315 132.705 18.9617C134.537 16.425 138.128 17.9017 138.128 17.9017L138.947 16.0717C136.76 14.825 133.682 15.1667 132.313 16.5333L132.315 16.53Z" fill="white"/>
<path d="M149.725 9.69168H147.33V27.4783H149.725V9.69168Z" fill="white"/>
<path d="M155.54 9.69168H153.145V27.4783H155.54V9.69168Z" fill="white"/>
<path d="M143.38 15.1633H140.985V27.4767H143.38V15.1633Z" fill="white"/>
<path d="M125.391 9.69168V16.6367C124.25 15.515 122.685 14.82 120.956 14.82C117.461 14.82 114.628 17.6533 114.628 21.15C114.628 24.6467 117.461 27.4783 120.956 27.4783C122.685 27.4783 124.25 26.7833 125.391 25.6617V27.4783H127.786V9.69168H125.391ZM121.298 24.9917C119.176 24.9917 117.455 23.27 117.455 21.1483C117.455 19.0267 119.175 17.305 121.298 17.305C123.421 17.305 125.141 19.0267 125.141 21.1483C125.141 23.27 123.421 24.9917 121.298 24.9917Z" fill="white"/>
<path d="M47.29 14.8217C45.5616 14.8217 43.9966 15.5167 42.855 16.6383V14.8217H40.46V32.6083H42.855V25.6633C43.9966 26.785 45.5616 27.48 47.29 27.48C50.7866 27.48 53.62 24.6467 53.62 21.15C53.62 17.6533 50.7866 14.8217 47.29 14.8217ZM46.9483 24.995C44.8266 24.995 43.105 23.2733 43.105 21.1517C43.105 19.03 44.8266 17.3083 46.9483 17.3083C49.07 17.3083 50.7916 19.03 50.7916 21.1517C50.7916 23.2733 49.07 24.995 46.9483 24.995Z" fill="white"/>
<path d="M142.183 13.8583L144.588 9.69168H139.776L142.183 13.8583Z" fill="white"/>
</svg>
