<?xml version="1.0" encoding="UTF-8"?>
<svg id="b" data-name="图层 2" xmlns="http://www.w3.org/2000/svg" viewBox="0 0 660.7 120">
  <defs>
    <style>
      .d {
        fill: #824dff;
      }

      .e {
        fill: #ba9cff;
      }

      .f {
        fill: #5e19ff;
      }

      .g {
        fill: #4c00ff;
      }
    </style>
  </defs>
  <g id="c" data-name="logo&amp;amp;font(l2r)">
    <g>
      <path d="m250.4,32.4c-15.2,0-27.6,12.4-27.6,27.6s12.4,27.6,27.6,27.6,27.6-12.4,27.6-27.6-12.4-27.6-27.6-27.6Zm0,44.8c-8.7,0-15.7-7.7-15.7-17.2s7-17.2,15.7-17.2,15.7,7.7,15.7,17.2-7,17.2-15.7,17.2Z"/>
      <polygon points="344.4 71.9 332.4 36.1 331.7 33.9 321.3 33.9 320.5 36.1 308.6 71.9 295.9 33.9 283.9 33.9 301.8 87.6 303.3 87.6 313.8 87.6 315.3 87.6 326.5 54 337.7 87.6 339.2 87.6 349.6 87.6 351.1 87.6 369 33.9 357.1 33.9 344.4 71.9"/>
      <path d="m401.9,32.4c-3.1,0-6,.5-8.8,1.4-10.9,3.7-18.8,14-18.8,26.2s5.1,18.3,12.7,23.2c4.6,2.7,9.9,4.2,15.6,4.4.3,0,.6,0,.9,0,9.2,0,17.5-3.8,23.5-9.9l-7.6-5.3c-3.3,2.9-7.3,4.8-11.8,5.6-1.2.2-2.4.3-3.7.3-4.4,0-8.4-1.2-11.9-3.3-3.4-2.6-5.8-6.3-6.7-10.6h44c.2-1.5.4-3,.4-4.5,0-5.3-1.5-10.3-4.1-14.5-4.9-7.9-13.6-13.1-23.5-13.1Zm-16.4,23.1c2.2-7.3,9.1-12.7,17.1-12.7s14.9,5.3,17.1,12.7h-34.3Z"/>
      <path d="m451.1,39.8v-6h-10.4v53.7h10.4v-31.8c0-1.9.6-3.8,1.7-5.3,8-11.1,23.7-4.6,23.7-4.6l3.6-8c-9.5-5.4-23-3.9-28.9,2Z"/>
      <path d="m559.4,39.8v-6h-10.4v53.7h10.4v-31.8c0-1.9.6-3.8,1.7-5.3,8-11.1,23.7-4.6,23.7-4.6l3.6-8c-9.5-5.4-23-3.9-28.9,2Z"/>
      <rect x="624.9" y="10" width="10.4" height="77.6"/>
      <rect x="650.3" y="10" width="10.4" height="77.6"/>
      <circle cx="602.5" cy="17.5" r="7.5"/>
      <rect x="597.2" y="33.9" width="10.4" height="53.7"/>
      <path d="m529.2,40.3c-5-4.9-11.8-7.9-19.4-7.9-15.3,0-27.6,12.4-27.6,27.6s12.4,27.6,27.6,27.6,14.4-3,19.4-7.9v7.9h10.4V10h-10.4v30.3Zm-17.9,36.5c-9.3,0-16.8-7.5-16.8-16.8s7.5-16.8,16.8-16.8,16.8,7.5,16.8,16.8-7.5,16.8-16.8,16.8Z"/>
      <path d="m188.4,32.4c-7.5,0-14.4,3-19.4,7.9v-7.9h-10.4v77.6h10.4v-30.3c5,4.9,11.8,7.9,19.4,7.9,15.3,0,27.6-12.4,27.6-27.6s-12.4-27.6-27.6-27.6Zm-1.5,44.4c-9.3,0-16.8-7.5-16.8-16.8s7.5-16.8,16.8-16.8,16.8,7.5,16.8,16.8-7.5,16.8-16.8,16.8Z"/>
    </g>
    <g>
      <path class="g" d="m133.4,3l-64.1,111L5.2,3h128.2m5.2-3H0l69.3,120L138.6,0h0Z"/>
      <polygon class="f" points="69.3 60 138.6 0 0 0 69.3 60"/>
      <polygon class="d" points="69.3 35 138.6 0 0 0 69.3 35"/>
      <polygon class="e" points="69.3 15 138.6 0 0 0 69.3 15"/>
      <polygon class="g" points="69.3 100 86.6 70 52 70 69.3 100"/>
    </g>
  </g>
</svg>