<svg xmlns="http://www.w3.org/2000/svg" id="b" data-name="图层 2" viewBox="0 0 96 24"><defs><style>.f,.g{stroke-width:0}.f{fill:#4c00ff}.g{fill:#5e19ff}</style></defs><g id="c" data-name="黑底紫色logo"><path fill="none" stroke-width="0" d="M24 0H0v24h96V0H24z"/><path d="M20.812 4.853 12 20.115 3.188 4.853h17.624m.714-.413H2.474L12 20.94l9.526-16.5z" class="f"/><path d="m12 12.69 9.526-8.25H2.474L12 12.69z" class="g"/><path fill="#824dff" stroke-width="0" d="m12 9.253 9.526-4.813H2.474L12 9.253z"/><path fill="#ba9cff" stroke-width="0" d="m12 6.503 9.526-2.063H2.474L12 6.503z"/><path d="m12 18.19 2.382-4.125H9.618L12 18.19z" class="f"/><path stroke-width="0" d="M36.897 8.893a3.797 3.797 0 1 0 0 7.594 3.797 3.797 0 0 0 0-7.594zm0 6.157c-1.19 0-2.155-1.057-2.155-2.36s.965-2.36 2.155-2.36 2.155 1.057 2.155 2.36-.965 2.36-2.155 2.36zm12.929-.718-1.641-4.925-.103-.309h-1.437l-.102.309-1.643 4.925-1.744-5.234h-1.641l2.462 7.389h1.848l1.539-4.618 1.539 4.618h1.847l2.462-7.389H51.57l-1.744 5.234zm7.912-5.439a3.796 3.796 0 0 0-3.796 3.797c0 1.34.696 2.516 1.747 3.193a4.508 4.508 0 0 0 2.138.602l.117.002c1.266 0 2.41-.522 3.231-1.363l-1.049-.726a3.215 3.215 0 0 1-1.622.763 3.178 3.178 0 0 1-2.147-.404 2.474 2.474 0 0 1-.922-1.451h6.047c.033-.201.053-.407.053-.616 0-.732-.212-1.414-.571-1.995a3.794 3.794 0 0 0-3.226-1.802zm-2.253 3.181a2.462 2.462 0 0 1 4.712 0h-4.712zM64.5 9.918v-.819h-1.437v7.388H64.5v-4.378c0-.262.081-.52.234-.732 1.099-1.522 3.254-.636 3.254-.636l.491-1.098c-1.312-.748-3.159-.543-3.98.277v-.002zm14.889 0v-.819h-1.437v7.388h1.437v-4.378c0-.262.081-.52.234-.732 1.099-1.522 3.254-.636 3.254-.636l.491-1.098c-1.312-.748-3.159-.543-3.98.277v-.002zm9.009-4.103h1.437v10.672h-1.437zm3.489 0h1.437v10.672h-1.437zm-7.296 3.283h1.437v7.388h-1.437zm-9.356-3.283v4.167a3.797 3.797 0 1 0 0 5.415v1.09h1.437V5.815h-1.437zm-2.456 9.18a2.307 2.307 0 1 1 .001-4.613 2.307 2.307 0 0 1-.001 4.613zM28.374 8.893a3.786 3.786 0 0 0-2.661 1.09v-1.09h-1.437v10.672h1.437v-4.167a3.797 3.797 0 1 0 2.661-6.506zm-.205 6.104a2.307 2.307 0 1 1 .001-4.613 2.307 2.307 0 0 1-.001 4.613z"/><path d="m85.31 8.315 1.443-2.5h-2.887l1.444 2.5z" class="g"/></g></svg>