<svg width="24" height="24" viewBox="0 0 24 24" fill="none" xmlns="http://www.w3.org/2000/svg">
<path fill-rule="evenodd" clip-rule="evenodd" d="M19.519 5.54165C20.2934 6.61386 20.4281 7.80615 20.2728 8.83115C20.0952 10.0034 19.5303 11.0304 19.0303 11.5304L17 13.5607L10.4393 7.00006L12.4697 4.96975C12.9696 4.46976 13.9966 3.90487 15.1689 3.72725C16.1939 3.57195 17.3861 3.7066 18.4583 4.481L20.4697 2.46967L21.5303 3.53033L19.519 5.54165ZM13.5303 6.03038C13.7804 5.78033 14.5034 5.3452 15.3936 5.21032C16.2445 5.0814 17.1741 5.23485 17.9697 6.03039C18.7652 6.82592 18.9186 7.75554 18.7897 8.60644C18.6548 9.49662 18.2197 10.2196 17.9697 10.4697L17 11.4394L12.5607 7.00006L13.5303 6.03038ZM6.99998 10.4393L7.99999 11.4393L9.46967 9.96967L10.5303 11.0303L9.06065 12.5L11.5 14.9393L12.9697 13.4697L14.0303 14.5303L12.5606 16L13.5606 17L11.5303 19.0303C11.0304 19.5303 10.0034 20.0952 8.83108 20.2728C7.8061 20.4281 6.61381 20.2935 5.54161 19.519L3.53033 21.5303L2.46967 20.4697L4.48095 18.4584C3.70654 17.3862 3.57189 16.1939 3.72719 15.1689C3.90481 13.9966 4.46969 12.9697 4.96963 12.4697L6.99998 10.4393ZM6.03031 17.9697C5.75705 17.6964 5.55955 17.4073 5.42323 17.1111L6.34349 13.2171L6.99998 12.5607L11.4393 17L10.4696 17.9697C10.2196 18.2197 9.49659 18.6549 8.60637 18.7897C7.75548 18.9187 6.82584 18.7652 6.03031 17.9697ZM5.42323 17.1111C5.16269 16.5448 5.12563 15.9522 5.21027 15.3936C5.34514 14.5034 5.78025 13.7804 6.03031 13.5303L6.34349 13.2171L5.42323 17.1111Z" fill="#1A181D"/>
</svg>
