<svg width="24" height="24" viewBox="0 0 24 24" fill="none" xmlns="http://www.w3.org/2000/svg">
<path d="M5.8865 21.4805C5.16 21.4805 4.54241 21.2281 4.03375 20.7232C3.52525 20.2184 3.271 19.6054 3.271 18.8842V5.09597C3.271 4.36947 3.52525 3.75189 4.03375 3.24322C4.54241 2.73472 5.16 2.48047 5.8865 2.48047H16.5787V17.7882H5.8865C5.5775 17.7882 5.31433 17.8931 5.097 18.1027C4.87966 18.3126 4.771 18.5726 4.771 18.8827C4.771 19.1927 4.87966 19.4532 5.097 19.6642C5.31433 19.8751 5.5775 19.9805 5.8865 19.9805L19.229 20.0195V4.51953H20.729V21.5195L5.8865 21.4805ZM8.46325 16.2882H15.0787V3.98047H8.46325V16.2882ZM6.96325 16.2882V3.98047H5.8865C5.57033 3.98047 5.30541 4.08913 5.09175 4.30647C4.87791 4.5238 4.771 4.78697 4.771 5.09597V16.5785C4.944 16.4965 5.12083 16.4276 5.3015 16.3717C5.48216 16.3161 5.67716 16.2882 5.8865 16.2882H6.96325Z" fill="#1A181D"/>
</svg>
