<svg width="24" height="24" viewBox="0 0 24 24" fill="none" xmlns="http://www.w3.org/2000/svg">
<path d="M13.625 6.5H11.7679V8.35714H13.625V6.5Z" fill="#1A181D"/>
<path d="M15.4821 6.5H17.3393V8.35714H15.4821V6.5Z" fill="#1A181D"/>
<path d="M13.625 9.75H11.7679V11.6071H13.625V9.75Z" fill="#1A181D"/>
<path d="M15.4821 9.75H17.3393V11.6071H15.4821V9.75Z" fill="#1A181D"/>
<path d="M17.3393 13H15.4821V14.8571H17.3393V13Z" fill="#1A181D"/>
<path d="M15.4821 16.25H17.3393V18.1071H15.4821V16.25Z" fill="#1A181D"/>
<path d="M7.58929 12.7321H5.73214V14.5893H7.58929V12.7321Z" fill="#1A181D"/>
<path d="M5.73214 15.9821H7.58929V17.8393H5.73214V15.9821Z" fill="#1A181D"/>
<path fill-rule="evenodd" clip-rule="evenodd" d="M8.46429 9.90223V4.99998C8.46429 4.07293 9.21581 3.32141 10.1429 3.32141H18.9643C19.8913 3.32141 20.6428 4.07293 20.6428 4.99998V19C20.6428 19.0603 20.6397 19.1199 20.6335 19.1786H21.75V20.6786H2.25V19.1786H3.36653C3.36032 19.1199 3.35714 19.0603 3.35714 19V11.5714C3.35714 10.6444 4.10866 9.89284 5.03571 9.89284H8.28571C8.34603 9.89284 8.40561 9.89602 8.46429 9.90223ZM9.96429 4.99998C9.96429 4.90136 10.0442 4.82141 10.1429 4.82141H18.9643C19.0629 4.82141 19.1428 4.90136 19.1428 4.99998V19C19.1428 19.0986 19.0629 19.1786 18.9643 19.1786H10.1429C10.0442 19.1786 9.96429 19.0986 9.96429 19V4.99998ZM8.46429 11.5714C8.46429 11.4728 8.38434 11.3928 8.28571 11.3928H5.03571C4.93709 11.3928 4.85714 11.4728 4.85714 11.5714V19C4.85714 19.0986 4.93709 19.1786 5.03571 19.1786H8.28571C8.38434 19.1786 8.46429 19.0986 8.46429 19V11.5714Z" fill="#1A181D"/>
</svg>
